<?xml version="1.0" encoding="utf-8"?>
<!-- Generator: Adobe Illustrator 24.0.1, SVG Export Plug-In . SVG Version: 6.00 Build 0)  -->
<svg version="1.1" id="Слой_1" xmlns="http://www.w3.org/2000/svg" xmlns:xlink="http://www.w3.org/1999/xlink" x="0px" y="0px"
	 viewBox="0 0 15.9 19" style="enable-background:new 0 0 15.9 19;" xml:space="preserve">
<style type="text/css">
	.st0{clip-path:url(#SVGID_2_);}
	.st1{fill-rule:evenodd;clip-rule:evenodd;fill:#121920;}
	.st2{fill:#EB5A5C;}
	.st3{fill-rule:evenodd;clip-rule:evenodd;fill:#EB5A5C;}
	.st4{fill:#FFFFFF;}
	.st5{fill-rule:evenodd;clip-rule:evenodd;fill:#E52327;}
	.st6{fill:none;}
	.st7{clip-path:url(#SVGID_4_);}
	.st8{fill:#F95A59;}
	.st9{fill-rule:evenodd;clip-rule:evenodd;fill:#F95A59;}
	.st10{fill:none;stroke:#768298;stroke-width:1.8;stroke-linecap:round;stroke-linejoin:round;}
	.st11{fill-rule:evenodd;clip-rule:evenodd;fill:#34AADD;}
	.st12{fill:none;stroke:#34AADD;stroke-width:2;}
</style>
<g>
	<path class="st11" d="M7.9,11c-4.1,0-7.4,3.1-7.9,7c-0.1,0.5,0.4,1,0.9,1c0.6,0,1-0.5,1.1-1c0.5-2.8,2.9-5,5.9-5c3,0,5.4,2.2,5.9,5
		c0.1,0.5,0.5,1,1.1,1c0.6,0,1-0.5,0.9-1C15.4,14.1,12,11,7.9,11z"/>
	<path class="st12" d="M7.9,9c2.2,0,4-1.8,4-4s-1.8-4-4-4c-2.2,0-4,1.8-4,4S5.7,9,7.9,9"/>
</g>
</svg>
