<?xml version="1.0" encoding="utf-8"?>
<!-- Generator: Adobe Illustrator 24.0.1, SVG Export Plug-In . SVG Version: 6.00 Build 0)  -->
<svg version="1.1" id="Слой_1" xmlns="http://www.w3.org/2000/svg" xmlns:xlink="http://www.w3.org/1999/xlink" x="0px" y="0px"
	 viewBox="0 0 135 30.3" style="enable-background:new 0 0 135 30.3;" xml:space="preserve">
<style type="text/css">
	.st0{clip-path:url(#SVGID_2_);}
	.st1{fill-rule:evenodd;clip-rule:evenodd;fill:#121920;}
	.st2{fill:#EB5A5C;}
	.st3{fill-rule:evenodd;clip-rule:evenodd;fill:#EB5A5C;}
	.st4{fill:#FFFFFF;}
	.st5{fill-rule:evenodd;clip-rule:evenodd;fill:#E52327;}
	.st6{fill:none;}
	.st7{clip-path:url(#SVGID_4_);}
	.st8{fill:#F95A59;}
	.st9{fill-rule:evenodd;clip-rule:evenodd;fill:#F95A59;}
</style>
<g>
	<defs>
		<rect id="SVGID_3_" width="135" height="30.3"/>
	</defs>
	<clipPath id="SVGID_2_">
		<use xlink:href="#SVGID_3_"  style="overflow:visible;"/>
	</clipPath>
	<g class="st0">
		<path class="st1" d="M14.8,0.1C17.9,0,21,0.9,23.6,2.7c2.6,1.8,4.6,4.3,5.7,7.3c1.1,3,1.2,6.2,0.4,9.2c-0.4,1.3-1.8,2.1-3.1,1.8
			c-1.3-0.4-2.1-1.8-1.8-3.1c0.6-2,0.5-4.2-0.3-6.1c-0.7-2-2-3.7-3.8-4.8c-1.7-1.2-3.8-1.8-5.9-1.7c-2.1,0-4.1,0.8-5.8,2
			c-1.7,1.3-2.9,3-3.5,5c-0.6,2-0.6,4.1,0,6.1c0.6,2,1.9,3.7,3.6,5c1.7,1.2,3.7,1.9,5.8,2c1.4,0,2.5,1.2,2.5,2.6
			c0,1.4-1.2,2.5-2.6,2.5c-3.1,0-6.2-1.1-8.7-2.9c-2.5-1.9-4.4-4.5-5.4-7.5s-1-6.2,0-9.2c0.9-3,2.8-5.6,5.3-7.5l1.5,2l-1.5-2
			C8.6,1.2,11.7,0.2,14.8,0.1z"/>
		<path class="st8" d="M26.5,25c0,2.1-1.7,3.8-3.8,3.8c-2.1,0-3.8-1.7-3.8-3.8s1.7-3.8,3.8-3.8C24.8,21.2,26.5,22.9,26.5,25z"/>
		<path class="st9" d="M60.8,24.1h-5l-0.7-0.9c-1,0.4-1.8,0.6-2.6,0.9c-0.8,0.2-1.6,0.3-2.5,0.3c-3,0-5.4-0.8-7.1-2.2
			c-1.8-1.5-2.7-3.8-2.7-6.8c0-3,0.8-5.4,2.4-6.9C44.3,6.8,46.8,6,50.1,6c3.2,0,5.6,0.9,7.3,2.5c1.5,1.5,2.2,3.4,2.2,5.6
			c0,1.7-0.1,2.9-0.2,3.7c-0.2,1.2-0.8,2.3-1.5,3.4L60.8,24.1z M55.1,15.1c0-1.6-0.3-2.9-1-4c-0.9-1.3-2.3-1.9-4.1-1.9
			c-1.7,0-3.1,0.5-4,1.5c-0.9,1-1.3,2.4-1.3,4.3c0,2.1,0.5,3.7,1.5,4.7c0.9,0.9,2.3,1.3,4.1,1.3c1.6,0,2.8-0.5,3.6-1.5
			C54.8,18.5,55.1,17.1,55.1,15.1z"/>
		<path class="st9" d="M79.6,18.5c0,1.6-0.5,2.9-1.6,4c-1,1.1-2.3,1.6-4,1.6H61.6v-3.2H72c0.7,0,1.3-0.2,1.7-0.5
			c0.5-0.4,0.8-0.9,0.8-1.5c0-1.5-1.1-2.3-3.2-2.3h-5.2c-1.5,0-2.8-0.5-4-1.4c-1.1-0.9-1.7-2.1-1.7-3.6c0-1.6,0.5-2.9,1.7-3.8
			c1.1-1,2.5-1.5,4.4-1.5h12v3H67.9c-0.5,0-1,0.2-1.4,0.6c-0.5,0.4-0.8,0.9-0.8,1.4c0,0.6,0.2,1.1,0.7,1.5c0.5,0.4,1,0.6,1.7,0.6
			h5.7c1.8,0,3.2,0.5,4.2,1.4C79.1,15.8,79.6,17,79.6,18.5z"/>
		<path class="st9" d="M100.1,15.1c0,3.5-1,5.9-2.9,7.4c-1.6,1.2-3.8,1.8-6.8,1.8c-3.3,0-5.7-0.7-7.3-2.1c-1.7-1.5-2.6-4-2.6-7.3
			c0-2.8,0.8-4.9,2.3-6.4C84.5,6.9,87,6,90.4,6c3.7,0,6.2,0.8,7.7,2.4C99.4,9.8,100.1,12,100.1,15.1z M95.5,15
			c0-1.7-0.4-3.1-1.2-4.2c-0.9-1.1-2.3-1.7-4.1-1.7S87,9.7,86.1,11c-0.8,1-1.1,2.4-1.1,4c0,1.9,0.3,3.3,0.9,4.2
			c0.9,1.2,2.4,1.9,4.7,1.9c1.9,0,3.3-0.6,4.1-1.8C95.3,18.4,95.5,16.9,95.5,15z"/>
		<path class="st9" d="M117.9,16.6h-12.2V24h-4.4V13.1c0-0.6,0.1-1.4,0.4-2.2c0.5-1.5,1.4-2.5,2.8-3.3c1.6-0.9,4.2-1.3,7.7-1.3
			c7.6,0,15.3,0,22.9,0v3h-6.6V24h-4.1V9.3c-4.2,0-8.2-0.1-12.4-0.1c-1.6,0-2.8,0.1-3.4,0.3c-1.1,0.3-1.9,0.9-2.4,1.8
			c-0.4,0.7-0.5,1.5-0.5,2.3h12.3V16.6z"/>
	</g>
</g>
</svg>
